<?xml version="1.0" encoding="UTF-8"?>
<svg xmlns="http://www.w3.org/2000/svg" xmlns:xlink="http://www.w3.org/1999/xlink" width="57px" height="130px" viewBox="0 0 57 105" version="1.1">
<defs>
<clipPath id="clip1">
  <path d="M 0 0.261719 L 57 0.261719 L 57 104.457031 L 0 104.457031 Z M 0 0.261719 "/>
</clipPath>
</defs>
<g id="surface1">
<g clip-path="url(#clip1)" clip-rule="nonzero">
<path style=" stroke:none;fill-rule:nonzero;fill:rgb(23.921569%,43.137255%,63.529412%);fill-opacity:1;" d="M 57 0.261719 L 0 5.492188 L 7.636719 104.457031 L 50.730469 99.960938 Z M 57 0.261719 "/>
</g>
<path style=" stroke:none;fill-rule:nonzero;fill:rgb(94.509804%,3.529412%,52.156863%);fill-opacity:1;" d="M 46.726562 49.144531 L 46.359375 39.523438 C 46.148438 33.773438 45.621094 29.589844 44.832031 26.925781 C 43.988281 24.257812 42.777344 21.800781 41.089844 19.554688 C 39.457031 17.304688 37.246094 15.582031 34.503906 14.429688 C 31.765625 13.28125 28.65625 12.757812 25.074219 12.914062 C 20.125 13.125 16.066406 14.535156 12.960938 17.042969 C 9.851562 19.605469 7.902344 22.535156 7.058594 25.722656 C 6.214844 28.964844 5.898438 34.035156 6.058594 40.9375 L 23.125 40.152344 L 22.96875 35.394531 C 22.808594 30.792969 22.863281 27.8125 23.179688 26.507812 C 23.496094 25.199219 24.285156 24.46875 25.601562 24.417969 C 26.65625 24.363281 27.339844 24.835938 27.761719 25.777344 C 28.132812 26.769531 28.394531 28.703125 28.5 31.578125 L 28.972656 44.648438 C 29.132812 49.773438 29.078125 53.011719 28.761719 54.320312 C 28.449219 55.625 27.550781 56.359375 26.128906 56.410156 C 24.339844 56.515625 23.335938 55.050781 23.179688 52.070312 L 7.636719 52.804688 L 8.429688 74.445312 L 24.339844 73.714844 L 24.023438 65.246094 C 26.183594 68.90625 29.34375 70.578125 33.453125 70.421875 C 36.613281 70.265625 39.351562 69.113281 41.671875 67.023438 C 43.988281 64.878906 45.410156 62.476562 46.042969 59.808594 C 46.621094 57.089844 46.832031 53.535156 46.726562 49.144531 Z M 46.726562 49.144531 "/>
<path style=" stroke:none;fill-rule:nonzero;fill:rgb(94.509804%,3.529412%,52.156863%);fill-opacity:1;" d="M 28.078125 77.742188 L 12.167969 78.523438 L 12.75 94.261719 L 28.65625 93.527344 Z M 28.078125 77.742188 "/>
<path style=" stroke:none;fill-rule:nonzero;fill:rgb(36.078431%,87.45098%,78.823529%);fill-opacity:1;" d="M 51.519531 42.453125 L 51.152344 32.832031 C 50.941406 27.082031 50.414062 22.898438 49.625 20.234375 C 48.78125 17.566406 47.570312 15.109375 45.882812 12.863281 C 44.25 10.613281 42.039062 8.890625 39.300781 7.738281 C 36.558594 6.589844 33.453125 6.066406 29.871094 6.222656 C 24.917969 6.433594 20.863281 7.84375 17.753906 10.351562 C 14.644531 12.863281 12.644531 15.789062 11.800781 18.980469 C 10.957031 22.21875 10.640625 27.292969 10.800781 34.191406 L 27.921875 33.460938 L 27.761719 28.703125 C 27.605469 24.101562 27.65625 21.121094 27.972656 19.816406 C 28.289062 18.507812 29.078125 17.777344 30.394531 17.722656 C 31.449219 17.671875 32.136719 18.140625 32.554688 19.082031 C 32.925781 20.078125 33.1875 22.011719 33.292969 24.886719 L 33.769531 37.957031 C 33.925781 43.078125 33.875 46.320312 33.558594 47.628906 C 33.242188 48.933594 32.347656 49.667969 30.921875 49.71875 C 29.132812 49.824219 28.132812 48.359375 27.972656 45.378906 L 12.433594 46.113281 L 13.222656 67.753906 L 29.132812 67.023438 L 28.816406 58.554688 C 30.976562 62.214844 34.136719 63.886719 38.246094 63.730469 C 41.40625 63.574219 44.144531 62.421875 46.464844 60.332031 C 48.78125 58.1875 50.203125 55.785156 50.835938 53.117188 C 51.46875 50.398438 51.679688 46.84375 51.519531 42.453125 Z M 51.519531 42.453125 "/>
<path style=" stroke:none;fill-rule:nonzero;fill:rgb(36.078431%,87.45098%,78.823529%);fill-opacity:1;" d="M 29.289062 71.046875 L 13.378906 71.832031 L 13.90625 87.570312 L 29.816406 86.835938 Z M 29.289062 71.046875 "/>
</g>
</svg>
