<?xml version="1.0" encoding="UTF-8"?>
<svg xmlns="http://www.w3.org/2000/svg" xmlns:xlink="http://www.w3.org/1999/xlink" width="57px" height="130px" viewBox="0 0 57 105" version="1.1">
<defs>
<clipPath id="clip1">
  <path d="M 0 0.6875 L 57 0.6875 L 57 104.878906 L 0 104.878906 Z M 0 0.6875 "/>
</clipPath>
</defs>
<g id="surface1">
<g clip-path="url(#clip1)" clip-rule="nonzero">
<path style=" stroke:none;fill-rule:nonzero;fill:rgb(94.509804%,3.529412%,52.156863%);fill-opacity:1;" d="M 57 0.6875 L 0 5.914062 L 7.636719 104.878906 L 50.730469 100.382812 Z M 57 0.6875 "/>
</g>
<path style=" stroke:none;fill-rule:nonzero;fill:rgb(10.196078%,10.196078%,10.196078%);fill-opacity:1;" d="M 46.726562 49.566406 L 46.359375 39.949219 C 46.148438 34.199219 45.621094 30.015625 44.832031 27.347656 C 43.988281 24.683594 42.777344 22.226562 41.089844 19.976562 C 39.457031 17.730469 37.246094 16.003906 34.503906 14.855469 C 31.765625 13.703125 28.65625 13.179688 25.074219 13.339844 C 20.125 13.546875 16.066406 14.957031 12.960938 17.46875 C 9.851562 20.03125 7.902344 22.957031 7.058594 26.148438 C 6.214844 29.386719 5.898438 34.460938 6.058594 41.359375 L 23.125 40.574219 L 22.96875 35.816406 C 22.808594 31.21875 22.863281 28.238281 23.179688 26.929688 C 23.496094 25.625 24.285156 24.890625 25.601562 24.839844 C 26.65625 24.789062 27.339844 25.257812 27.761719 26.199219 C 28.132812 27.191406 28.394531 29.125 28.5 32.003906 L 28.972656 45.070312 C 29.132812 50.195312 29.078125 53.4375 28.761719 54.742188 C 28.449219 56.050781 27.550781 56.78125 26.128906 56.835938 C 24.339844 56.9375 23.335938 55.476562 23.179688 52.496094 L 7.636719 53.226562 L 8.429688 74.871094 L 24.339844 74.140625 L 24.023438 65.667969 C 26.183594 69.328125 29.34375 71.003906 33.453125 70.84375 C 36.613281 70.6875 39.351562 69.539062 41.671875 67.445312 C 43.988281 65.304688 45.410156 62.898438 46.042969 60.234375 C 46.621094 57.515625 46.832031 53.960938 46.726562 49.566406 Z M 46.726562 49.566406 "/>
<path style=" stroke:none;fill-rule:nonzero;fill:rgb(10.196078%,10.196078%,10.196078%);fill-opacity:1;" d="M 28.078125 78.164062 L 12.167969 78.949219 L 12.75 94.683594 L 28.65625 93.953125 Z M 28.078125 78.164062 "/>
<path style=" stroke:none;fill-rule:nonzero;fill:rgb(100%,86.666667%,0%);fill-opacity:1;" d="M 51.519531 42.875 L 51.152344 33.257812 C 50.941406 27.507812 50.414062 23.324219 49.625 20.65625 C 48.78125 17.992188 47.570312 15.535156 45.882812 13.285156 C 44.25 11.039062 42.039062 9.3125 39.300781 8.164062 C 36.558594 7.011719 33.453125 6.488281 29.871094 6.648438 C 24.917969 6.855469 20.863281 8.265625 17.753906 10.777344 C 14.644531 13.285156 12.644531 16.214844 11.800781 19.402344 C 10.957031 22.644531 10.640625 27.714844 10.800781 34.617188 L 27.921875 33.882812 L 27.761719 29.125 C 27.605469 24.527344 27.65625 21.546875 27.972656 20.238281 C 28.289062 18.933594 29.078125 18.199219 30.394531 18.148438 C 31.449219 18.09375 32.136719 18.566406 32.554688 19.507812 C 32.925781 20.5 33.1875 22.433594 33.292969 25.308594 L 33.769531 38.378906 C 33.925781 43.503906 33.875 46.746094 33.558594 48.050781 C 33.242188 49.359375 32.347656 50.089844 30.921875 50.144531 C 29.132812 50.246094 28.132812 48.785156 27.972656 45.804688 L 12.433594 46.535156 L 13.222656 68.179688 L 29.132812 67.445312 L 28.816406 58.976562 C 30.976562 62.636719 34.136719 64.308594 38.246094 64.152344 C 41.40625 63.996094 44.144531 62.847656 46.464844 60.753906 C 48.78125 58.613281 50.203125 56.207031 50.835938 53.539062 C 51.46875 50.824219 51.679688 47.265625 51.519531 42.875 Z M 51.519531 42.875 "/>
<path style=" stroke:none;fill-rule:nonzero;fill:rgb(100%,86.666667%,0%);fill-opacity:1;" d="M 29.289062 71.472656 L 13.378906 72.257812 L 13.90625 87.992188 L 29.816406 87.261719 Z M 29.289062 71.472656 "/>
</g>
</svg>
